<svg xmlns="http://www.w3.org/2000/svg" width="20" height="20" viewBox="0 0 20 20">
    <path fill="#333" fill-rule="evenodd" d="M16.25 17.5h-3.438v-2.813a.938.938 0 0 0-.937-.937h-3.75a.938.938 0 0 0-.938.938V17.5H3.75v-15h12.5v15zm-7.188-1.875h1.876V17.5H9.062v-1.875zm-6.25-15h14.376c.517 0 .937.42.937.938v16.875c0 .517-.42.937-.938.937H2.813a.938.938 0 0 1-.937-.938V1.563c0-.517.42-.937.938-.937zM8.75 5H6.875v1.875H8.75V5zm4.375 0H11.25v1.875h1.875V5zM8.75 8.75H6.875v1.875H8.75V8.75zm4.375 0H11.25v1.875h1.875V8.75z"/>
</svg>
