<svg xmlns="http://www.w3.org/2000/svg" width="20" height="20" viewBox="0 0 20 20">
    <path fill="#32b1bd" fill-rule="evenodd" d="M17.5 14.375l-4.375 1.875V5.625L17.5 3.75v10.625zm-5.625 1.875l-3.75-1.875V3.75l3.75 1.875V16.25zm-5-1.792L2.5 16.268V5.54L6.875 3.77v10.69zm11.636-12.48a.493.493 0 0 0-.513-.054L12.735 4.14 7.47 1.924a.453.453 0 0 0-.41 0L1.592 4.231a.534.534 0 0 0-.248.207.578.578 0 0 0-.094.324v12.686c0 .198.08.357.24.476.096.067.198.1.307.1.08 0 .148-.015.205-.045l5.263-2.216 5.265 2.216a.447.447 0 0 0 .41 0l5.469-2.307a.525.525 0 0 0 .247-.207.58.58 0 0 0 .094-.324V2.456a.57.57 0 0 0-.24-.477z"/>
</svg>
