<svg xmlns="http://www.w3.org/2000/svg" width="18" height="18" viewBox="0 0 18 18">
    <path fill="#000" fill-opacity=".32" fill-rule="evenodd" d="M7.242 14.625a1.055 1.055 0 1 1 0-2.11 1.055 1.055 0 0 1 0 2.11zm0-4.57a1.055 1.055 0 1 1 0-2.11 1.055 1.055 0 0 1 0 2.11zm0-4.57a1.055 1.055 0 1 1 0-2.11 1.055 1.055 0 0 1 0 2.11zm3.516 9.14a1.055 1.055 0 1 1 0-2.11 1.055 1.055 0 0 1 0 2.11zm0-4.57a1.055 1.055 0 1 1 0-2.11 1.055 1.055 0 0 1 0 2.11zm0-4.57a1.055 1.055 0 1 1 0-2.11 1.055 1.055 0 0 1 0 2.11z"/>
</svg>
