<svg xmlns="http://www.w3.org/2000/svg" width="14" height="14" viewBox="0 0 14 14">
    <path fill="#3498DB" fill-rule="evenodd" d="M11.625 2.36a6.523 6.523 0 0 1 0 9.28 6.547 6.547 0 0 1-7.142 1.423A6.562 6.562 0 0 1 .438 7 6.562 6.562 0 0 1 4.482.937a6.547 6.547 0 0 1 7.142 1.423zM7 5.36a.82.82 0 0 1 .82.82v4.101a.82.82 0 1 1-1.64 0V6.18A.82.82 0 0 1 7 5.36zm0-.82a.82.82 0 1 1 0-1.642.82.82 0 0 1 0 1.641zm3.839 6.312a5.421 5.421 0 0 0 0-7.704 5.434 5.434 0 0 0-7.692 0 5.452 5.452 0 0 0 0 7.703 5.434 5.434 0 0 0 7.692.001z"/>
</svg>
